<svg width="85" height="24" viewBox="0 0 85 24" fill="none" xmlns="http://www.w3.org/2000/svg">
<path d="M20.88 23C20.26 23.24 19.59 23.36 18.87 23.36C18.15 23.36 17.59 23.23 17.19 22.97C16.79 22.71 16.46 22.32 16.2 21.8C15.82 21.04 15.39 19.75 14.91 17.93C14.43 16.09 14.05 14.08 13.77 11.9C12.09 17.24 11.13 20.88 10.89 22.82C10.01 23.06 9.22 23.18 8.52 23.18C7.38 23.18 6.54 22.77 6 21.95C5.46 21.11 5.07 20.02 4.83 18.68C4.83 18.64 4.68 17.8 4.38 16.16C4.08 14.52 3.86 13.38 3.72 12.74C3.26 10.4 2.78 8.44 2.28 6.86C1.8 5.28 1.09 4.2 0.15 3.62C0.39 3.02 0.76 2.55 1.26 2.21C1.76 1.87 2.32 1.7 2.94 1.7C4.32 1.7 5.31 2.74 5.91 4.82C6.33 6.28 6.83 8.76 7.41 12.26C7.99 15.74 8.42 18.23 8.7 19.73C10.96 13.41 12.09 9.23 12.09 7.19C12.09 6.77 12.04 6.48 11.94 6.32C12.36 5.84 12.95 5.6 13.71 5.6C14.49 5.6 15.09 5.81 15.51 6.23C15.95 6.65 16.3 7.33 16.56 8.27C16.82 9.19 17.18 11 17.64 13.7C18.12 16.4 18.49 18.41 18.75 19.73C19.55 17.21 20.18 15.18 20.64 13.64C21.12 12.1 21.61 10.16 22.11 7.82C22.63 5.48 22.89 3.59 22.89 2.15C22.89 1.89 22.88 1.7 22.86 1.58C23.12 1.54 23.56 1.52 24.18 1.52C24.8 1.52 25.34 1.72 25.8 2.12C26.28 2.5 26.52 3.12 26.52 3.98C26.52 4.84 26.2 6.28 25.56 8.3C24.94 10.32 24.13 12.78 23.13 15.68C22.15 18.56 21.4 21 20.88 23ZM25.2202 21.95C25.6802 17.97 25.9102 15.23 25.9102 13.73C25.9102 9.53 25.7402 5.24 25.4002 0.859999C26.0002 0.619998 26.6402 0.499998 27.3202 0.499998C28.0002 0.499998 28.5802 0.729998 29.0602 1.19C29.5402 1.65 29.7802 2.23 29.7802 2.93C29.7802 4.13 29.6602 6.05 29.4202 8.69C29.1802 11.31 29.0302 13.06 28.9702 13.94C30.6102 10.86 32.2402 8.94 33.8602 8.18C34.5802 7.82 35.3502 7.64 36.1702 7.64C37.2902 7.64 38.1502 8.23 38.7502 9.41C39.3702 10.59 39.6802 12.03 39.6802 13.73C39.6802 16.45 38.9402 18.71 37.4602 20.51C35.9802 22.29 34.0602 23.18 31.7002 23.18C29.3602 23.18 27.2002 22.77 25.2202 21.95ZM28.8202 20.06C29.6202 20.36 30.5702 20.51 31.6702 20.51C32.7702 20.51 33.7202 20.3 34.5202 19.88C35.5002 18.2 35.9902 16.37 35.9902 14.39C35.9902 13.45 35.8802 12.54 35.6602 11.66C35.4402 10.76 35.0902 10.31 34.6102 10.31C33.8702 10.31 32.9002 11.33 31.7002 13.37C30.5002 15.41 29.5402 17.64 28.8202 20.06ZM48.8738 8.18C48.9538 7.78 48.9938 7.37 48.9938 6.95C48.9938 5.01 48.0438 4.04 46.1438 4.04C45.2838 4.04 44.5538 4.22 43.9538 4.58C43.3938 5.24 43.1138 6.03 43.1138 6.95C43.1138 7.55 43.3738 8.07 43.8938 8.51C44.4138 8.93 45.0538 9.26 45.8138 9.5C46.5938 9.74 47.4338 10.04 48.3338 10.4C49.2338 10.76 50.0638 11.15 50.8238 11.57C51.6038 11.97 52.2538 12.58 52.7738 13.4C53.2938 14.2 53.5538 15.15 53.5538 16.25C53.5538 18.35 52.7438 20.06 51.1238 21.38C49.5238 22.7 47.5938 23.36 45.3338 23.36C43.5138 23.36 41.9638 22.91 40.6838 22.01C39.4238 21.09 38.7938 19.81 38.7938 18.17C38.7938 17.33 39.0438 16.63 39.5438 16.07C40.0638 15.49 40.6738 15.2 41.3738 15.2C42.0938 15.2 42.6238 15.29 42.9638 15.47C42.8038 16.07 42.7238 16.61 42.7238 17.09C42.7238 18.17 43.0238 19.03 43.6238 19.67C44.2438 20.29 45.0938 20.6 46.1738 20.6C47.2538 20.6 48.1238 20.32 48.7838 19.76C49.4438 19.2 49.7738 18.46 49.7738 17.54C49.7738 16.6 49.4038 15.83 48.6638 15.23C47.9438 14.63 47.0638 14.15 46.0238 13.79C44.9838 13.43 43.9438 13.05 42.9038 12.65C41.8638 12.25 40.9738 11.66 40.2338 10.88C39.5138 10.08 39.1538 9.08 39.1538 7.88C39.1538 6 39.9638 4.44 41.5838 3.2C43.2238 1.96 45.0738 1.34 47.1338 1.34C48.6538 1.34 49.9638 1.65 51.0638 2.27C52.1838 2.87 52.7437 3.79 52.7437 5.03C52.7437 5.93 52.4538 6.7 51.8738 7.34C51.2938 7.96 50.5638 8.27 49.6838 8.27C49.4438 8.27 49.1738 8.24 48.8738 8.18ZM53.0775 11.246C53.4615 11.054 53.8515 10.958 54.2475 10.958C54.6435 10.958 54.9615 11.084 55.2015 11.336C55.4535 11.588 55.5795 11.96 55.5795 12.452C55.5795 12.944 55.5495 13.502 55.4895 14.126C56.3895 14.126 57.2475 14 58.0635 13.748C58.2075 13.988 58.2795 14.27 58.2795 14.594C58.2795 14.906 58.1355 15.164 57.8475 15.368C57.5715 15.56 57.2895 15.656 57.0015 15.656C56.7135 15.656 56.3895 15.62 56.0295 15.548C55.6695 15.476 55.4355 15.434 55.3275 15.422C55.3155 15.53 55.2795 15.746 55.2195 16.07C55.1715 16.394 55.1295 16.676 55.0935 16.916C54.9975 17.576 54.9495 18.284 54.9495 19.04C54.9495 20.684 55.4835 21.506 56.5515 21.506C56.9475 21.506 57.4035 21.368 57.9195 21.092C58.0755 21.32 58.1535 21.614 58.1535 21.974C58.1535 22.334 57.9555 22.616 57.5595 22.82C57.1755 23.012 56.7135 23.108 56.1735 23.108C54.0615 23.108 53.0055 21.908 53.0055 19.508C53.0055 19.16 53.0535 18.53 53.1495 17.618C53.2575 16.706 53.3115 15.968 53.3115 15.404C52.7355 15.44 52.2735 15.542 51.9255 15.71C51.7815 15.494 51.7095 15.248 51.7095 14.972C51.7095 14.684 51.8115 14.45 52.0155 14.27C52.2195 14.078 52.4715 13.982 52.7715 13.982C53.0715 13.982 53.2695 13.988 53.3655 14C53.3775 13.904 53.3835 13.778 53.3835 13.622C53.3835 12.722 53.2815 11.93 53.0775 11.246ZM57.875 21.164L58.055 17.42C58.055 16.256 57.887 15.152 57.551 14.108C57.887 13.964 58.301 13.892 58.793 13.892C59.753 13.892 60.233 14.426 60.233 15.494C60.233 16.094 60.167 16.94 60.035 18.032C59.903 19.112 59.837 19.898 59.837 20.39C59.837 20.99 60.107 21.29 60.647 21.29C60.971 21.29 61.349 21.02 61.781 20.48C62.225 19.928 62.603 19.316 62.915 18.644C63.239 17.96 63.431 17.402 63.491 16.97C63.419 15.65 63.317 14.696 63.185 14.108C63.569 13.964 63.959 13.892 64.355 13.892C64.763 13.892 65.099 14.018 65.363 14.27C65.639 14.522 65.777 14.834 65.777 15.206C65.777 15.578 65.723 16.196 65.615 17.06C65.507 17.924 65.453 18.83 65.453 19.778C65.453 20.714 65.561 21.716 65.777 22.784C65.309 22.928 64.889 23 64.517 23C63.773 23 63.401 22.508 63.401 21.524C63.401 21.092 63.449 20.492 63.545 19.724C63.065 20.744 62.477 21.566 61.781 22.19C61.097 22.802 60.401 23.108 59.693 23.108C58.481 23.108 57.875 22.46 57.875 21.164ZM71.5147 9.716C71.8987 9.572 72.2947 9.5 72.7027 9.5C73.1107 9.5 73.4467 9.638 73.7107 9.914C73.9747 10.178 74.1067 10.514 74.1067 10.922C74.1067 11.318 74.0467 12.266 73.9267 13.766C73.8067 15.254 73.7467 16.724 73.7467 18.176C73.7467 19.616 73.8907 21.152 74.1787 22.784C73.7467 22.928 73.2967 23 72.8287 23C72.0367 23 71.6407 22.442 71.6407 21.326C71.6407 20.954 71.7187 20.288 71.8747 19.328C71.3707 20.396 70.9207 21.188 70.5247 21.704C70.1407 22.22 69.7627 22.586 69.3907 22.802C69.0307 23.006 68.6467 23.108 68.2387 23.108C67.3267 23.108 66.6247 22.772 66.1327 22.1C65.6527 21.428 65.4127 20.6 65.4127 19.616C65.4127 18.632 65.5867 17.708 65.9347 16.844C66.2947 15.968 66.8287 15.242 67.5367 14.666C68.2567 14.078 69.0187 13.784 69.8227 13.784C70.6267 13.784 71.3227 13.892 71.9107 14.108C71.8867 12.56 71.7547 11.096 71.5147 9.716ZM71.9107 15.638C71.3227 15.422 70.6867 15.314 70.0027 15.314C69.3187 15.314 68.7307 15.512 68.2387 15.908C67.8307 16.88 67.6267 17.966 67.6267 19.166C67.6267 19.718 67.7047 20.246 67.8607 20.75C68.0167 21.254 68.2747 21.506 68.6347 21.506C69.1867 21.506 69.8107 20.888 70.5067 19.652C71.2147 18.416 71.6827 17.078 71.9107 15.638ZM74.1178 14.054C74.5018 13.946 74.8858 13.892 75.2698 13.892C75.6658 13.892 76.0018 14.012 76.2778 14.252C76.5538 14.492 76.6918 14.804 76.6918 15.188C76.6918 15.56 76.6258 16.214 76.4938 17.15C76.3738 18.074 76.3138 18.794 76.3138 19.31C76.3138 20.654 76.4398 21.812 76.6918 22.784C76.3198 22.928 75.9178 23 75.4858 23C75.0538 23 74.7118 22.904 74.4598 22.712C74.2078 22.508 74.0818 22.22 74.0818 21.848C74.0818 21.464 74.1538 20.84 74.2978 19.976C74.4418 19.112 74.5138 18.398 74.5138 17.834C74.5138 16.334 74.3818 15.074 74.1178 14.054ZM74.3518 9.986C74.7718 9.794 75.1858 9.698 75.5938 9.698C76.0018 9.698 76.3018 9.806 76.4938 10.022C76.6978 10.226 76.7998 10.532 76.7998 10.94C76.7998 11.348 76.6618 11.708 76.3858 12.02C76.1218 12.332 75.7738 12.488 75.3418 12.488C74.4538 12.488 74.0098 12.026 74.0098 11.102C74.0098 10.694 74.1238 10.322 74.3518 9.986ZM80.1097 23.216C78.7897 23.216 77.8177 22.832 77.1937 22.064C76.5697 21.284 76.2577 20.204 76.2577 18.824C76.2577 17.432 76.6717 16.226 77.4997 15.206C78.3277 14.186 79.3897 13.676 80.6857 13.676C83.3497 13.676 84.6817 15.176 84.6817 18.176C84.6817 19.58 84.2497 20.774 83.3857 21.758C82.5217 22.73 81.4297 23.216 80.1097 23.216ZM78.8137 15.656C78.5977 16.352 78.4897 17.048 78.4897 17.744C78.4897 18.44 78.5137 18.98 78.5617 19.364C78.6097 19.748 78.6997 20.132 78.8317 20.516C79.1077 21.296 79.6477 21.686 80.4517 21.686C81.2677 21.686 81.8017 21.47 82.0537 21.038C82.3177 20.606 82.4497 19.94 82.4497 19.04C82.4497 16.484 81.8437 15.206 80.6317 15.206C79.9357 15.206 79.3297 15.356 78.8137 15.656Z" fill="#9D9D9D" fill-opacity="0.3"/>
</svg>
